<svg width="48" height="48" viewBox="0 0 48 48" fill="none" xmlns="http://www.w3.org/2000/svg">
<path fill-rule="evenodd" clip-rule="evenodd" d="M20.6915 6.80851C20.6915 4.98127 22.1728 3.5 24 3.5C25.8272 3.5 27.3085 4.98127 27.3085 6.80851V8.87577C29.1311 9.27269 30.8337 9.9906 32.354 10.967L33.8167 9.50433C35.1088 8.21228 37.2036 8.21228 38.4957 9.50433C39.7877 10.7964 39.7877 12.8912 38.4957 14.1833L37.033 15.646C38.0094 17.1663 38.7273 18.8689 39.1242 20.6915H41.1915C43.0187 20.6915 44.5 22.1728 44.5 24C44.5 25.8272 43.0187 27.3085 41.1915 27.3085H39.1242C38.7273 29.1311 38.0094 30.8337 37.033 32.354L38.4957 33.8168C39.7878 35.1088 39.7878 37.2037 38.4957 38.4957C37.2037 39.7878 35.1088 39.7878 33.8168 38.4957L32.354 37.033C30.8337 38.0094 29.1311 38.7273 27.3085 39.1242V41.1915C27.3085 43.0187 25.8272 44.5 24 44.5C22.1728 44.5 20.6915 43.0187 20.6915 41.1915V39.1242C18.8689 38.7273 17.1663 38.0094 15.646 37.033L14.1832 38.4957C12.8912 39.7878 10.7963 39.7878 9.50428 38.4957C8.21223 37.2036 8.21223 35.1088 9.50428 33.8168L10.967 32.354C9.9906 30.8337 9.27269 29.1311 8.87577 27.3085H6.80851C4.98127 27.3085 3.5 25.8272 3.5 24C3.5 22.1728 4.98127 20.6915 6.80851 20.6915H8.87577C9.27269 18.8689 9.9906 17.1663 10.967 15.646L9.50433 14.1833C8.21228 12.8912 8.21228 10.7964 9.50433 9.50433C10.7964 8.21228 12.8912 8.21228 14.1833 9.50433L15.646 10.967C17.1663 9.9906 18.8689 9.27269 20.6915 8.87577V6.80851ZM24 4.5C22.725 4.5 21.6915 5.53356 21.6915 6.80851V9.28414C21.6915 9.52435 21.5207 9.73062 21.2847 9.77538C19.3053 10.1508 17.4685 10.9293 15.8625 12.0226C15.664 12.1578 15.3974 12.1327 15.2276 11.9629L13.4762 10.2114C12.5746 9.30991 11.113 9.30991 10.2114 10.2114C9.30991 11.113 9.30991 12.5746 10.2114 13.4762L11.9629 15.2276C12.1327 15.3974 12.1578 15.664 12.0226 15.8625C10.9293 17.4685 10.1509 19.3053 9.77538 21.2847C9.73062 21.5207 9.52435 21.6915 9.28414 21.6915H6.80851C5.53356 21.6915 4.5 22.725 4.5 24C4.5 25.275 5.53356 26.3085 6.80851 26.3085H9.28414C9.52435 26.3085 9.73062 26.4793 9.77538 26.7153C10.1509 28.6947 10.9293 30.5315 12.0226 32.1375C12.1578 32.336 12.1327 32.6026 11.9629 32.7724L10.2114 34.5239C9.30986 35.4254 9.30986 36.8871 10.2114 37.7886C11.1129 38.6901 12.5746 38.6901 13.4761 37.7886L15.2276 36.0371C15.3974 35.8673 15.664 35.8422 15.8625 35.9774C17.4685 37.0707 19.3053 37.8491 21.2847 38.2246C21.5207 38.2694 21.6915 38.4756 21.6915 38.7159V41.1915C21.6915 42.4664 22.725 43.5 24 43.5C25.275 43.5 26.3085 42.4664 26.3085 41.1915V38.7159C26.3085 38.4756 26.4793 38.2694 26.7153 38.2246C28.6947 37.8491 30.5315 37.0707 32.1375 35.9774C32.336 35.8422 32.6026 35.8673 32.7724 36.0371L34.5239 37.7886C35.4254 38.6901 36.8871 38.6901 37.7886 37.7886C38.6901 36.8871 38.6901 35.4254 37.7886 34.5239L36.0371 32.7724C35.8673 32.6026 35.8422 32.336 35.9774 32.1375C37.0707 30.5315 37.8491 28.6947 38.2246 26.7153C38.2694 26.4793 38.4756 26.3085 38.7159 26.3085H41.1915C42.4664 26.3085 43.5 25.275 43.5 24C43.5 22.725 42.4664 21.6915 41.1915 21.6915H38.7159C38.4756 21.6915 38.2694 21.5207 38.2246 21.2847C37.8491 19.3053 37.0707 17.4685 35.9774 15.8625C35.8422 15.664 35.8673 15.3974 36.0371 15.2276L37.7886 13.4762C38.6901 12.5746 38.6901 11.113 37.7886 10.2114C36.887 9.30991 35.4254 9.30991 34.5238 10.2114L32.7724 11.9629C32.6026 12.1327 32.336 12.1578 32.1375 12.0226C30.5315 10.9293 28.6947 10.1509 26.7153 9.77538C26.4793 9.73062 26.3085 9.52435 26.3085 9.28414V6.80851C26.3085 5.53356 25.275 4.5 24 4.5ZM24 15.1383C19.1058 15.1383 15.1383 19.1058 15.1383 24C15.1383 28.8942 19.1058 32.8617 24 32.8617C28.8942 32.8617 32.8617 28.8942 32.8617 24C32.8617 19.1058 28.8942 15.1383 24 15.1383ZM14.1383 24C14.1383 18.5535 18.5535 14.1383 24 14.1383C29.4465 14.1383 33.8617 18.5535 33.8617 24C33.8617 29.4465 29.4465 33.8617 24 33.8617C18.5535 33.8617 14.1383 29.4465 14.1383 24Z" fill="black"/>
</svg>
